Coordinates
version=1
nRows=27
nColumns=12
inDegrees=yes

Units are S.I. units (second, meters, Newtons, ...)
Angles are in degrees

endheader
time	SC_y	SC_z	SC_x	AC_y	AC_z	AC_x	GH_y	GH_z	GH_yy	EL_x	PS_y
       0.0              -18.47          29.15          41.82          51.88         -7.137          12.26          71.56          87.13          123.2          91.09          48.49
    0.0379              -18.47          29.15          41.82          51.88         -7.136          12.26          71.54          87.12          123.2           91.1          48.48
   0.07581              -18.48          29.15          41.83          51.88         -7.134          12.26          71.53          87.11          123.2           91.1          48.47
    0.1137              -18.48          29.14          41.83          51.88         -7.133          12.26          71.51           87.1          123.2           91.1          48.47
    0.1516              -18.48          29.14          41.83          51.88         -7.131          12.26           71.5          87.09          123.2           91.1          48.46
    0.1895              -18.48          29.14          41.84          51.88          -7.13          12.25          71.48          87.08          123.3          91.11          48.45
    0.2274              -18.48          29.13          41.84          51.88         -7.128          12.25          71.46          87.06          123.3          91.11          48.44
    0.2653              -18.49          29.13          41.85          51.88         -7.126          12.25          71.44          87.05          123.3          91.12          48.44
    0.3032              -18.49          29.13          41.86          51.88         -7.124          12.25          71.42          87.03          123.3          91.12          48.43
    0.3411              -18.49          29.12          41.86          51.88         -7.121          12.25          71.39          87.02          123.3          91.12          48.42
     0.379              -18.49          29.12          41.87          51.89         -7.119          12.24          71.37           87.0          123.3          91.13          48.41
     0.417               -18.5          29.11          41.88          51.89         -7.116          12.24          71.34          86.98          123.3          91.13          48.39
    0.4549               -18.5          29.11          41.89          51.89         -7.114          12.24          71.31          86.96          123.4          91.14          48.38
    0.4928               -18.5           29.1          41.89          51.89          -7.11          12.24          71.28          86.94          123.4          91.15          48.37
    0.5307               -18.5          29.09           41.9          51.89         -7.107          12.23          71.25          86.92          123.4          91.15          48.35
    0.5686              -18.51          29.09          41.91           51.9         -7.104          12.23          71.21          86.89          123.4          91.16          48.34
    0.6065              -18.51          29.08          41.93           51.9           -7.1          12.23          71.17          86.86          123.4          91.17          48.32
    0.6444              -18.52          29.07          41.94           51.9         -7.095          12.22          71.12          86.83          123.5          91.18           48.3
    0.6823              -18.52          29.06          41.95           51.9         -7.091          12.22          71.08           86.8          123.5          91.19          48.28
    0.7202              -18.53          29.05          41.97          51.91         -7.086          12.21          71.02          86.76          123.5           91.2          48.26
    0.7581              -18.53          29.04          41.98          51.91          -7.08          12.21          70.97          86.72          123.6          91.21          48.24
     0.796              -18.54          29.03           42.0          51.91         -7.074           12.2           70.9          86.68          123.6          91.22          48.21
    0.8339              -18.55          29.02          42.02          51.92         -7.067          12.19          70.83          86.63          123.6          91.23          48.18
    0.8718              -18.56           29.0          42.04          51.92          -7.06          12.19          70.75          86.58          123.7          91.25          48.15
    0.9097              -18.56          28.99          42.06          51.93         -7.052          12.18          70.67          86.52          123.7          91.26          48.11
    0.9476              -18.57          28.97          42.09          51.93         -7.042          12.17          70.57          86.45          123.8          91.28          48.07
    0.9855              -18.58          28.95          42.12          51.94         -7.032          12.16          70.46          86.38          123.9           91.3          48.02
